<svg width="12" height="12" viewBox="0 0 12 12" fill="none" xmlns="http://www.w3.org/2000/svg">
<path fill-rule="evenodd" clip-rule="evenodd" d="M0.250746 0.261683C0.411347 0.100986 0.629139 0.0107205 0.856223 0.0107205C1.08331 0.0107205 1.3011 0.100986 1.4617 0.261683L5.99462 4.79852L10.5276 0.261683C10.6066 0.179809 10.7011 0.114512 10.8055 0.0695892C10.91 0.0246664 11.0225 0.00102644 11.1361 3.21558e-05C11.2498 -0.000953557 11.3626 0.0207321 11.4679 0.0638292C11.5731 0.106926 11.6687 0.170578 11.7491 0.251055C11.8295 0.331532 11.8932 0.427231 11.9363 0.532574C11.9792 0.637916 12.0009 0.750785 12 0.864596C11.9989 0.978407 11.9753 1.09088 11.9304 1.19545C11.8856 1.30002 11.8203 1.39461 11.7385 1.47367L7.20557 6.01052L11.7385 10.5474C11.8945 10.709 11.9809 10.9255 11.9789 11.1503C11.9769 11.375 11.8869 11.59 11.7281 11.7489C11.5693 11.9078 11.3545 11.998 11.1299 12C10.9054 12.0019 10.6891 11.9155 10.5276 11.7594L5.99462 7.22252L1.4617 11.7594C1.30018 11.9155 1.08386 12.0019 0.859306 12C0.634758 11.998 0.419963 11.9078 0.261177 11.7489C0.102392 11.59 0.0123238 11.375 0.0103798 11.1503C0.00842722 10.9255 0.0947438 10.709 0.250746 10.5474L4.78366 6.01052L0.250746 1.47367C0.0901963 1.31294 0 1.09496 0 0.867673C0 0.640394 0.0901963 0.422414 0.250746 0.261683Z" fill="black"/>
</svg>
